<svg preserveAspectRatio="none" overflow="visible" style="display: block;" width="21.5419" height="21.0452" viewBox="0 0 21.5419 21.0452" fill="none" xmlns="http://www.w3.org/2000/svg">
<g id="Buy">
<path id="Stroke 1" d="M0.750123 0.750123L3.00346 1.14012L4.04671 13.5692C4.13012 14.5843 4.97837 15.3632 5.99671 15.36H17.8148C18.7865 15.3621 19.611 14.6471 19.7485 13.6851L20.7766 6.58062C20.8915 5.78654 20.34 5.04987 19.547 4.93504C19.4777 4.92529 3.36529 4.91987 3.36529 4.91987" stroke="#001833" stroke-width="1.5" stroke-linecap="round" stroke-linejoin="round"/>
<path id="Stroke 3" d="M13.073 8.92376H16.0771" stroke="#001833" stroke-width="1.5" stroke-linecap="round" stroke-linejoin="round"/>
<path id="Stroke 5" fill-rule="evenodd" clip-rule="evenodd" d="M5.52145 19.1154C5.84753 19.1154 6.11078 19.3798 6.11078 19.7048C6.11078 20.0309 5.84753 20.2952 5.52145 20.2952C5.19536 20.2952 4.93211 20.0309 4.93211 19.7048C4.93211 19.3798 5.19536 19.1154 5.52145 19.1154Z" fill="#001833" stroke="#001833" stroke-width="1.5" stroke-linecap="round" stroke-linejoin="round"/>
<path id="Stroke 7" fill-rule="evenodd" clip-rule="evenodd" d="M17.7418 19.1154C18.0679 19.1154 18.3322 19.3798 18.3322 19.7048C18.3322 20.0309 18.0679 20.2952 17.7418 20.2952C17.4157 20.2952 17.1524 20.0309 17.1524 19.7048C17.1524 19.3798 17.4157 19.1154 17.7418 19.1154Z" fill="#001833" stroke="#001833" stroke-width="1.5" stroke-linecap="round" stroke-linejoin="round"/>
</g>
</svg>
